<?xml version="1.0" encoding="UTF-8" standalone="no"?>
<!-- Created with Inkscape (http://www.inkscape.org/) -->

<svg
   xmlns:dc="http://purl.org/dc/elements/1.1/"
   xmlns:cc="http://creativecommons.org/ns#"
   xmlns:rdf="http://www.w3.org/1999/02/22-rdf-syntax-ns#"
   xmlns:svg="http://www.w3.org/2000/svg"
   xmlns="http://www.w3.org/2000/svg"
   xmlns:sodipodi="http://sodipodi.sourceforge.net/DTD/sodipodi-0.dtd"
   xmlns:inkscape="http://www.inkscape.org/namespaces/inkscape"
   width="96.503708mm"
   height="26.780571mm"
   viewBox="0 0 341.94227 94.891787"
   id="svg4209"
   version="1.1"
   inkscape:version="0.91 r13725"
   sodipodi:docname="peaberry.svg">
  <defs
     id="defs4211" />
  <sodipodi:namedview
     id="base"
     pagecolor="#ffffff"
     bordercolor="#666666"
     borderopacity="0"
     inkscape:pageopacity="0.0"
     inkscape:pageshadow="2"
     inkscape:zoom="0.98994949"
     inkscape:cx="99.721794"
     inkscape:cy="28.967031"
     inkscape:document-units="px"
     inkscape:current-layer="layer1"
     showgrid="false"
     inkscape:window-width="1301"
     inkscape:window-height="744"
     inkscape:window-x="65"
     inkscape:window-y="24"
     inkscape:window-maximized="1"
     fit-margin-top="0"
     fit-margin-left="0"
     fit-margin-right="0"
     fit-margin-bottom="0" />
  <metadata
     id="metadata4214">
    <rdf:RDF>
      <cc:Work
         rdf:about="">
        <dc:format>image/svg+xml</dc:format>
        <dc:type
           rdf:resource="http://purl.org/dc/dcmitype/StillImage" />
        <dc:title></dc:title>
      </cc:Work>
    </rdf:RDF>
  </metadata>
  <g
     inkscape:label="Layer 1"
     inkscape:groupmode="layer"
     id="layer1"
     transform="translate(-177.31458,-430.6306)">
    <path
       style="font-style:normal;font-variant:normal;font-weight:900;font-stretch:expanded;font-size:medium;line-height:125%;font-family:'Doctor Fibes DEL';-inkscape-font-specification:'Doctor Fibes DEL Heavy Expanded';letter-spacing:0px;word-spacing:0px;fill:#000000;fill-opacity:1;stroke:none;stroke-width:1px;stroke-linecap:butt;stroke-linejoin:miter;stroke-opacity:1"
       d="m 179.98922,430.70873 51.22482,0 q 2.27027,0.47962 1.59879,3.19755 -2.23829,2.39816 -1.59879,5.62769 l 4.79634,20.08066 q 0.95927,17.87432 -24.01364,22.51078 -4.79632,2.39816 -4.73237,5.53176 0.064,3.10163 4.73237,4.12485 -0.3837,4.09287 -5.59572,4.02892 -3.00569,0 -7.99389,-4.02892 l 0,5.62769 q 0,19.31325 7.99389,23.27821 1.4389,3.67719 -1.59878,4.82831 l -23.21425,0 q -2.55804,0.12786 -2.39816,-2.39816 4.79634,-10.74379 4.79634,-19.31325 0,-68.2678 -4.79634,-68.2678 -1.59877,0 -1.85458,-1.88655 -0.2558,-1.91852 2.65397,-2.94174 z m 17.61853,28.3623 0,20.81609 q 24.30141,-14.6448 24.01364,-25.61241 0.41568,-14.74074 -9.62465,-15.22037 -14.45294,1.21507 -14.38899,20.01669 z"
       id="path4158"
       inkscape:connector-curvature="0" />
    <path
       style="font-style:normal;font-variant:normal;font-weight:900;font-stretch:expanded;font-size:medium;line-height:125%;font-family:'Doctor Fibes DEL';-inkscape-font-specification:'Doctor Fibes DEL Heavy Expanded';letter-spacing:0px;word-spacing:0px;fill:#000000;fill-opacity:1;stroke:none;stroke-width:1px;stroke-linecap:butt;stroke-linejoin:miter;stroke-opacity:1"
       inkscape:connector-curvature="0"
       d="m 237.70108,430.6306 25.66406,0 q 5.3125,0.97656 5.3125,11.69922 -0.21484,1.38672 -1.93359,1.46484 -5.37109,-6.83593 -10.15625,-6.83593 -7.12891,0 -8.71094,9.25781 -0.33203,5.33203 1.44531,7.32422 6.73829,-6.32813 9.6875,-6.32813 5.83985,-0.15625 7.2461,12.16797 -0.625,1.11328 -1.9336,0.97656 -4.76562,-3.90625 -6.77734,-3.90625 -7.24609,0 -8.71094,11.21094 -0.0586,13.45703 8.71094,13.14453 4.84375,-0.95703 4.84375,-4.84375 0,-2.4414 -5.3125,-7.32422 0.46875,-1.44531 2.89063,-1.44531 l 5.33203,0 q 3.75,0 4.84375,2.42188 l 0,16.5625 q -1.25,2.4414 -3.88672,2.4414 l -25.64453,0 q -3.37891,0 -3.37891,-2.4414 3.37891,-4.66797 3.37891,-19.98047 0,-32.63672 -4.35547,-32.63672 -1.13281,-2.63672 1.44531,-2.92969 z"
       id="path4160" />
    <path
       style="font-style:normal;font-variant:normal;font-weight:900;font-stretch:expanded;font-size:medium;line-height:125%;font-family:'Doctor Fibes DEL';-inkscape-font-specification:'Doctor Fibes DEL Heavy Expanded';letter-spacing:0px;word-spacing:0px;fill:#000000;fill-opacity:1;stroke:none;stroke-width:1px;stroke-linecap:butt;stroke-linejoin:miter;stroke-opacity:1"
       d="m 281.57384,430.70873 20.37109,0 q 10.17578,0 10.17578,5.83984 12.57813,32.71484 12.57813,47.28516 0,4.88281 -5.9961,4.88281 l -11.36719,0 q -3.10546,0 -3.59375,-1.46485 l 0,-1.46484 q 7.1875,-4.10156 7.1875,-13.63281 -1.54296,-17.07031 -10.19531,-17.07031 l -2.38281,0 q -12.16797,0 -14.375,14.14062 0,10.85938 11.97266,16.09375 l 0,1.93359 q -0.3711,1.46485 -4.78516,1.46485 l -10.78125,0 q -7.79297,-0.60547 -7.79297,-4.88281 l 10.78125,-43.37891 q 0.60547,-4.64844 -2.40234,-4.86328 -5.625,0.27344 -2.98828,4.39453 0.44921,1.25 -1.19141,1.93359 -4.98047,0 -5.99609,-5.37109 0,-5.33203 10.78125,-5.83984 z m 6.15234,21.05468 0,0.48828 q 9.57031,-4.82421 16.77734,-4.82421 0,-8.71094 -7.79297,-8.71094 -8.98437,3.3789 -8.98437,13.04687 z"
       id="path4162"
       inkscape:connector-curvature="0" />
    <path
       style="font-style:normal;font-variant:normal;font-weight:900;font-stretch:expanded;font-size:medium;line-height:125%;font-family:'Doctor Fibes DEL';-inkscape-font-specification:'Doctor Fibes DEL Heavy Expanded';letter-spacing:0px;word-spacing:0px;fill:#000000;fill-opacity:1;stroke:none;stroke-width:1px;stroke-linecap:butt;stroke-linejoin:miter;stroke-opacity:1"
       d="m 325.93487,430.72826 34.16016,0 q 3.20312,0.3125 3.20312,1.46484 -3.20312,5.09766 2.12891,14.58984 -0.29297,5.6836 -9.60938,7.77344 12.8125,7.92969 12.8125,20.91797 0,8.76953 -9.08203,12.16797 -2.40234,0.97656 -6.93359,0.97656 l -21.875,0 q -3.94531,0 -4.27734,-1.95312 3.20312,-5.89844 3.20312,-8.75 l 0,-28.22266 q 0,-14.35547 -4.80469,-17.01172 -0.60547,-1.8164 1.07422,-1.95312 z m 13.14453,13.47656 q -0.11718,4.45312 0.91797,10.23437 l 12.53906,-8.67187 q 1.95313,-7.77344 -5.74218,-7.69531 -7.59766,1.66015 -7.71485,6.13281 z m 0.39063,24.66797 q -0.39063,12.57812 8.35937,12.51953 6.38672,0 7.83203,-12.03125 -1.25,-11.07422 -7.83203,-11.07422 -8.35937,1.5625 -8.35937,10.58594 z"
       id="path4164"
       inkscape:connector-curvature="0" />
    <path
       style="font-style:normal;font-variant:normal;font-weight:900;font-stretch:expanded;font-size:medium;line-height:125%;font-family:'Doctor Fibes DEL';-inkscape-font-specification:'Doctor Fibes DEL Heavy Expanded';letter-spacing:0px;word-spacing:0px;fill:#000000;fill-opacity:1;stroke:none;stroke-width:1px;stroke-linecap:butt;stroke-linejoin:miter;stroke-opacity:1"
       d="m 369.07381,430.6306 25.66406,0 q 5.3125,0.97656 5.3125,11.69922 -0.21485,1.38672 -1.9336,1.46484 -5.37109,-6.83593 -10.15625,-6.83593 -7.1289,0 -8.71093,9.25781 -0.33203,5.33203 1.44531,7.32422 6.73828,-6.32813 9.6875,-6.32813 5.83984,-0.15625 7.24609,12.16797 -0.625,1.11328 -1.93359,0.97656 -4.76563,-3.90625 -6.77734,-3.90625 -7.2461,0 -8.71094,11.21094 -0.0586,13.45703 8.71094,13.14453 4.84375,-0.95703 4.84375,-4.84375 0,-2.4414 -5.3125,-7.32422 0.46875,-1.44531 2.89062,-1.44531 l 5.33203,0 q 3.75,0 4.84375,2.42188 l 0,16.5625 q -1.25,2.4414 -3.88672,2.4414 l -25.64453,0 q -3.3789,0 -3.3789,-2.4414 3.3789,-4.66797 3.3789,-19.98047 0,-32.63672 -4.35547,-32.63672 -1.13281,-2.63672 1.44532,-2.92969 z"
       id="path4166"
       inkscape:connector-curvature="0" />
    <path
       style="font-style:normal;font-variant:normal;font-weight:900;font-stretch:expanded;font-size:medium;line-height:125%;font-family:'Doctor Fibes DEL';-inkscape-font-specification:'Doctor Fibes DEL Heavy Expanded';letter-spacing:0px;word-spacing:0px;fill:#000000;fill-opacity:1;stroke:none;stroke-width:1px;stroke-linecap:butt;stroke-linejoin:miter;stroke-opacity:1"
       d="m 404.62905,430.68919 30.80078,0 q 0.97656,0 0.97656,1.46485 -2.46094,3.94531 1.95313,16.69922 0,5.37109 -10.74219,11.28906 4.6289,0 7.40234,11.15234 2.79297,11.15235 8.24219,15.3711 0.27344,1.67968 -1.46484,1.95312 l -11.25,0 q -2.12891,0 -2.85157,-11.17187 -0.72265,-11.17188 -6.44531,-13.86719 -5.54687,0 -6.34766,10.3125 -0.0391,10.05859 4.88282,11.77734 1.66015,2.59766 -0.97657,2.94922 l -14.66796,0 q -1.25,-0.2539 -0.97657,-1.46484 3.41797,-8.24219 3.41797,-21.13281 0,-33.37891 -3.41797,-33.37891 -0.44922,-2.01172 1.46485,-1.95313 z m 10.27343,21.25 0,7.34375 q 14.76563,-7.89062 14.17969,-16.62109 0.29297,-6.09375 -8.32031,-5.39062 -5.85938,2.77343 -5.85938,14.66796 z"
       id="path4168"
       inkscape:connector-curvature="0" />
    <path
       style="font-style:normal;font-variant:normal;font-weight:900;font-stretch:expanded;font-size:medium;line-height:125%;font-family:'Doctor Fibes DEL';-inkscape-font-specification:'Doctor Fibes DEL Heavy Expanded';letter-spacing:0px;word-spacing:0px;fill:#000000;fill-opacity:1;stroke:none;stroke-width:1px;stroke-linecap:butt;stroke-linejoin:miter;stroke-opacity:1"
       d="m 446.99513,430.68919 30.80078,0 q 0.97656,0 0.97656,1.46485 -2.46094,3.94531 1.95313,16.69922 0,5.37109 -10.74219,11.28906 4.6289,0 7.40234,11.15234 2.79297,11.15235 8.24219,15.3711 0.27344,1.67968 -1.46484,1.95312 l -11.25,0 q -2.12891,0 -2.85157,-11.17187 -0.72265,-11.17188 -6.44531,-13.86719 -5.54687,0 -6.34766,10.3125 -0.0391,10.05859 4.88282,11.77734 1.66015,2.59766 -0.97657,2.94922 l -14.66796,0 q -1.25,-0.2539 -0.97657,-1.46484 3.41797,-8.24219 3.41797,-21.13281 0,-33.37891 -3.41797,-33.37891 -0.44922,-2.01172 1.46485,-1.95313 z m 10.27343,21.25 0,7.34375 q 14.76563,-7.89062 14.17969,-16.62109 0.29297,-6.09375 -8.32031,-5.39062 -5.85938,2.77343 -5.85938,14.66796 z"
       id="path4170"
       inkscape:connector-curvature="0" />
    <path
       style="font-style:normal;font-variant:normal;font-weight:900;font-stretch:expanded;font-size:medium;line-height:125%;font-family:'Doctor Fibes DEL';-inkscape-font-specification:'Doctor Fibes DEL Heavy Expanded';letter-spacing:0px;word-spacing:0px;fill:#000000;fill-opacity:1;stroke:none;stroke-width:1px;stroke-linecap:butt;stroke-linejoin:miter;stroke-opacity:1"
       d="m 481.46388,430.70873 8.90625,0 q 4.23828,1.36718 6.66015,20.85937 2.48047,8.49609 5.66407,8.49609 7.14843,-3.30078 8.08593,-16.8164 0,-6.89453 -3.4375,-8.30078 -3.28125,-0.46875 -3.84765,2.4414 -0.0586,2.40235 1.21093,3.65235 -0.11718,1.52343 -1.8164,1.21093 -3.51563,-0.21484 -4.04297,-5.2539 0,-3.90625 4.84375,-6.28906 l 11.52344,0 q 4.04297,2.1875 4.04297,7.5 0,10.41015 -10.50782,23.0664 -3.04687,4.94141 -2.61718,11.13281 0.29296,12.36329 2.61718,12.36329 l 1.6211,1.62109 q 0.21484,1.83594 -1.6211,2.03125 l 0,0.19531 -15.35156,0 q -1.75781,-0.54687 -1.01562,-2.42187 4.19921,-2.57813 4.23828,-9.92188 0.42968,-10.625 -4.1211,-14.66797 -4.53125,-4.04297 -6.17187,-10.85937 -1.21094,-3.76953 -2.01172,-9.62891 -0.80078,-5.8789 -3.65234,-8.39844 -0.48829,-1.73828 0.80078,-2.01171 z"
       id="path4172"
       inkscape:connector-curvature="0" />
  </g>
</svg>
